<svg xmlns="http://www.w3.org/2000/svg" width="143.994" height="48.833" viewBox="0 0 143.994 48.833">
  <g id="logo_2" transform="translate(0.005 0.001)">
    <path id="Trazado_1" data-name="Trazado 1" d="M118.389,11.077a13.714,13.714,0,0,0-7.04-1.867,13.516,13.516,0,0,0-7,1.867,13.728,13.728,0,0,0-4.974,5.114,14.5,14.5,0,0,0-1.831,7.22V46.091a3.351,3.351,0,0,0,.973,2.474,3.509,3.509,0,0,0,4.806-.009,3.37,3.37,0,0,0,.937-2.456V34.648a12.586,12.586,0,0,0,14.621,1.045,12.918,12.918,0,0,0,4.645-5.114A15.39,15.39,0,0,0,125.2,23.4,14.633,14.633,0,0,0,123.4,16.19,13.58,13.58,0,0,0,118.389,11.077Zm-.7,16.381a7.4,7.4,0,0,1-2.635,2.813,7.288,7.288,0,0,1-7.431,0,7.116,7.116,0,0,1-2.608-2.8,8.52,8.52,0,0,1-.955-4.061,8.741,8.741,0,0,1,.955-4.092,7.106,7.106,0,0,1,2.608-2.822,7.143,7.143,0,0,1,10.066,2.831,8.97,8.97,0,0,1,0,8.123Z" transform="translate(-10.129 -0.733)" fill="#fff"/>
    <path id="Trazado_2" data-name="Trazado 2" d="M155.786,16.079a13.106,13.106,0,0,0-4.94-5.056,13.932,13.932,0,0,0-7.083-1.813,14.176,14.176,0,0,0-7.154,1.813,12.849,12.849,0,0,0-4.949,5.065A15.145,15.145,0,0,0,129.9,23.4a14.945,14.945,0,0,0,1.76,7.27,12.849,12.849,0,0,0,4.949,5.065,14.969,14.969,0,0,0,14.283,0,12.879,12.879,0,0,0,4.922-5.056,15.043,15.043,0,0,0,1.76-7.27,14.909,14.909,0,0,0-1.787-7.333Zm-5.68,11.441a6.757,6.757,0,0,1-2.572,2.769,7.6,7.6,0,0,1-7.539,0,6.939,6.939,0,0,1-2.6-2.769,8.636,8.636,0,0,1-.955-4.108,8.8,8.8,0,0,1,.955-4.135,7.016,7.016,0,0,1,2.6-2.8,7.6,7.6,0,0,1,7.539,0,6.813,6.813,0,0,1,2.572,2.787,8.961,8.961,0,0,1,.937,4.144,8.761,8.761,0,0,1-.937,4.11Z" transform="translate(-13.586 -0.734)" fill="#fff"/>
    <path id="Trazado_3" data-name="Trazado 3" d="M16.948,30.978a2.813,2.813,0,0,0-2.153-1h-1.59a2.169,2.169,0,0,1-1.76-.912,3.9,3.9,0,0,1-.8-2.545V14.316h2.983a3.171,3.171,0,0,0,2.256-.83,2.9,2.9,0,0,0,.921-2.153,3.028,3.028,0,0,0-.921-2.256,3.171,3.171,0,0,0-2.256-.83H10.642V3.088A3.309,3.309,0,0,0,9.705.682,3.2,3.2,0,0,0,7.329-.28,3.218,3.218,0,0,0,4.952.676a3.309,3.309,0,0,0-.937,2.407V8.227H2.853A3.171,3.171,0,0,0,.6,9.057a3.008,3.008,0,0,0-.921,2.256A2.881,2.881,0,0,0,.6,13.466a3.171,3.171,0,0,0,2.256.83H4.03V26.5A11.183,11.183,0,0,0,5.218,31.66a9.414,9.414,0,0,0,3.309,3.679,8.457,8.457,0,0,0,4.7,1.2h.839a3.782,3.782,0,0,0,2.617-.742A3.159,3.159,0,0,0,17.8,33.336a3.46,3.46,0,0,0-.839-2.359Z" transform="translate(0.32 0.28)" fill="#fff"/>
    <path id="Trazado_4" data-name="Trazado 4" d="M39.653,11.031a12.542,12.542,0,0,0-6.7-1.76,13.525,13.525,0,0,0-6.993,1.822,12.839,12.839,0,0,0-4.85,5.083,15.355,15.355,0,0,0-1.733,7.288,14.55,14.55,0,0,0,1.831,7.288A13.15,13.15,0,0,0,26.321,35.8a15,15,0,0,0,12.139.946,13.828,13.828,0,0,0,4.212-2.232,2.739,2.739,0,0,0,1.134-2.225,3.052,3.052,0,0,0-1.188-2.363,2.957,2.957,0,0,0-2.046-.715,3.371,3.371,0,0,0-2.135.715,7.769,7.769,0,0,1-2.216,1.134,8.353,8.353,0,0,1-7.972-1.34,7.145,7.145,0,0,1-2.368-3.592H42.395a3.052,3.052,0,0,0,3.126-3.091,16.183,16.183,0,0,0-1.5-7.083,11.362,11.362,0,0,0-4.364-4.92Zm-13.675,9.3a6.782,6.782,0,0,1,6.966-4.987,5.785,5.785,0,0,1,4.305,1.617,6.847,6.847,0,0,1,1.831,3.368Z" transform="translate(-1.778 -0.74)" fill="#fff"/>
    <path id="Trazado_5" data-name="Trazado 5" d="M83.805,9.27a5.334,5.334,0,0,0-5.278,5.378V26.116a1.243,1.243,0,1,0,2.484,0V14.648a2.8,2.8,0,1,1,5.591,0V44.194c0,.1-.009.2-.018.3a2.643,2.643,0,0,1-2.617,2.581,2.6,2.6,0,0,1-2.18-1.188c-.027-.036-.036-.054-.036-.063L61.42,12.28a5.659,5.659,0,0,0-4.627-3.008,5.334,5.334,0,0,0-5.278,5.378V36.924a5.28,5.28,0,1,0,10.559.018L62.1,25.929a1.262,1.262,0,0,0-1.223-1.286h-.018a1.253,1.253,0,0,0-1.241,1.25l-.027,11.031a2.8,2.8,0,1,1-5.591,0V14.648A2.823,2.823,0,0,1,56.8,11.8a3.276,3.276,0,0,1,2.456,1.7c.009.027.027.045.036.072L79.634,47.142a5.627,5.627,0,0,0,.34.474,5,5,0,0,0,1.241,1.134,4.654,4.654,0,0,0,2.232.794c.045.009.474.027.526.027A5.16,5.16,0,0,0,89.1,44.364V14.648A5.342,5.342,0,0,0,83.805,9.27Z" transform="translate(-5.211 -0.739)" fill="#fff"/>
  </g>
</svg>
