<svg id="boton_escucha" data-name="boton escucha" xmlns="http://www.w3.org/2000/svg" width="50" height="47" viewBox="0 0 50 47">
  <g id="escuchando" transform="translate(10.099 3.856)">
    <g id="Grupo_28" data-name="Grupo 28" transform="translate(0 0)">
      <path id="Trazado_39" data-name="Trazado 39" d="M47.011,23.8a18.014,18.014,0,0,0,3.823-4.582,12.031,12.031,0,0,0,1.377-5.947c0-.186,0-.387-.011-.612a.739.739,0,0,0-.738-.715h-.024a.739.739,0,0,0-.715.763c.007.21.01.394.01.564,0,4.274-1.592,6.535-4.728,9.447A11.778,11.778,0,0,0,42.283,30.4c-.572,4.026-3.177,5.675-5.24,5.864a5.169,5.169,0,0,1-5.4-3.8c-1.053-3.174-4.4-17.237-2.7-23.973.932-3.674,3.97-6.244,8.127-6.876,4-.608,9.257.756,11.967,5.177a.739.739,0,0,0,1.26-.773,12.386,12.386,0,0,0-5.96-4.983A14.4,14.4,0,0,0,36.849.157a12.187,12.187,0,0,0-5.823,2.478,10.216,10.216,0,0,0-3.514,5.5c-.953,3.758-.395,9.48.241,13.618a80.005,80.005,0,0,0,2.484,11.183,7.093,7.093,0,0,0,2.811,3.776,6.483,6.483,0,0,0,3.543,1.052c.2,0,.391-.009.587-.027a6.8,6.8,0,0,0,4.214-2.028,8.985,8.985,0,0,0,2.36-5.141.739.739,0,0,0,.007-.084A10.347,10.347,0,0,1,47.011,23.8Z" transform="translate(-27.001 0)" fill="#7255c8"/>
      <path id="Trazado_40" data-name="Trazado 40" d="M101.239,74.96a19.908,19.908,0,0,0-3.72,5.167c-.839,1.531-1.917,2.3-2.956,2.113-1.136-.205-2.036-1.492-2.294-3.277a.739.739,0,0,0-1.463.211c.35,2.425,1.722,4.2,3.494,4.52a3.3,3.3,0,0,0,.588.053c1.491,0,2.9-1.032,3.926-2.909a18.632,18.632,0,0,1,3.429-4.794c2.355-2.186,3.786-3.768,3.786-7.288,0-3.908-1.823-6.8-5.134-8.139a10.044,10.044,0,0,0-4.469-.675,7.952,7.952,0,0,0-4.3,1.564,5.665,5.665,0,0,0-2.078,3.207,4.468,4.468,0,0,0,.234,3.011c.806,1.812,2.433,1.627,3.622,1.492.176-.02.343-.039.508-.053A2.029,2.029,0,0,1,95.821,72.8a.739.739,0,0,0,.9,1.176,3.506,3.506,0,0,0-2.427-6.284c-.186.016-.371.037-.55.057-1.288.146-1.769.13-2.1-.624a3.023,3.023,0,0,1-.148-2.062,4.166,4.166,0,0,1,1.549-2.389,7.706,7.706,0,0,1,7.3-.686c3.481,1.409,4.211,4.459,4.211,6.769C104.552,71.589,103.543,72.822,101.239,74.96Z" transform="translate(-85.249 -55.486)" fill="#7255c8"/>
      <path id="Trazado_41" data-name="Trazado 41" d="M293.478,307.661a.739.739,0,1,0,0-1.478A14.491,14.491,0,0,0,279,320.65a.739.739,0,0,0,1.478,0A13.011,13.011,0,0,1,293.478,307.661Z" transform="translate(-260.379 -283.561)" fill="#7255c8"/>
      <path id="Trazado_42" data-name="Trazado 42" d="M342.488,359.05a10.578,10.578,0,0,0-10.571,10.561.739.739,0,0,0,1.478,0,9.1,9.1,0,0,1,9.093-9.084.739.739,0,1,0,0-1.478Z" transform="translate(-309.389 -332.523)" fill="#7255c8"/>
      <path id="Trazado_43" data-name="Trazado 43" d="M391.472,411.918a6.667,6.667,0,0,0-6.663,6.655.739.739,0,0,0,1.478,0,5.188,5.188,0,0,1,5.186-5.178.739.739,0,1,0,0-1.478Z" transform="translate(-358.373 -381.485)" fill="#7255c8"/>
      <path id="Trazado_44" data-name="Trazado 44" d="M341.639,118.735l0,0a.739.739,0,1,0,0-1.047A.734.734,0,0,0,341.641,118.737Z" transform="translate(-318.192 -108.795)" fill="#7255c8"/>
    </g>
  </g>
  <g id="Rectángulo_11" data-name="Rectángulo 11" fill="none" stroke="#7255c8" stroke-width="1">
    <rect width="50" height="47" rx="8" stroke="none"/>
    <rect x="0.5" y="0.5" width="49" height="46" rx="7.5" fill="none"/>
  </g>
</svg>
