<svg id="hablar" xmlns="http://www.w3.org/2000/svg" width="50" height="47" viewBox="0 0 50 47">
  <g id="Rectángulo_11" data-name="Rectángulo 11" fill="none" stroke="#7255c8" stroke-width="1">
    <rect width="50" height="47" rx="8" stroke="none"/>
    <rect x="0.5" y="0.5" width="49" height="46" rx="7.5" fill="none"/>
  </g>
  <g id="Outline" transform="translate(-9 -11)">
    <path id="Trazado_52" data-name="Trazado 52" d="M143.278,16a12.737,12.737,0,0,0-12.261,9.288l-2.993,10.644a.609.609,0,0,0,.586.774h3.045v2.436a.609.609,0,0,0,.609.609h3.593a3.05,3.05,0,0,1-2.984,2.436h-.609a.609.609,0,0,0-.609.609V46.45a3.658,3.658,0,0,0,3.654,3.654h3.654v1.827a.609.609,0,0,0,.609.609h13.4a.609.609,0,0,0,.609-.609V45.72a26.915,26.915,0,0,1,1.192-7.925,28.125,28.125,0,0,0,1.244-8.276v-.783A12.751,12.751,0,0,0,143.278,16ZM154.8,29.519a26.915,26.915,0,0,1-1.192,7.925,28.125,28.125,0,0,0-1.244,8.276v5.6h-12.18V49.5a.609.609,0,0,0-.609-.609h-4.263a2.439,2.439,0,0,1-2.436-2.436V43.405a4.268,4.268,0,0,0,4.263-4.263.609.609,0,0,0-.609-.609h-3.654V36.1a.609.609,0,0,0-.609-.609h-2.85l2.776-9.87A11.519,11.519,0,0,1,154.8,28.737Z" transform="translate(-103.475)" fill="#7255c8"/>
    <path id="Trazado_53" data-name="Trazado 53" d="M48,312h1.218v4.872H48Z" transform="translate(-29.564 -273.467)" fill="#7255c8"/>
    <path id="Trazado_54" data-name="Trazado 54" d="M112,312h1.218v4.872H112Z" transform="translate(-88.692 -273.467)" fill="#7255c8"/>
    <path id="Trazado_55" data-name="Trazado 55" d="M144,328h1.218v2.436H144Z" transform="translate(-118.256 -288.249)" fill="#7255c8"/>
    <path id="Trazado_56" data-name="Trazado 56" d="M16,328h1.218v2.436H16Z" transform="translate(0 -288.249)" fill="#7255c8"/>
    <path id="Trazado_57" data-name="Trazado 57" d="M80,272h1.218v10.962H80Z" transform="translate(-59.128 -236.512)" fill="#7255c8"/>
    <path id="Trazado_59" data-name="Trazado 59" d="M384.609,184H384v1.218h.609a2.436,2.436,0,0,1,0,4.872H384v1.218h.609a3.654,3.654,0,1,0,0-7.308Z" transform="translate(-339.986 -155.211)" fill="#7255c8"/>
  </g>
</svg>
