<svg xmlns="http://www.w3.org/2000/svg" xmlns:xlink="http://www.w3.org/1999/xlink" width="32" height="27" viewBox="0 0 32 27">
  <defs>
    <clipPath id="clip-path">
      <rect id="Rectángulo_5" data-name="Rectángulo 5" width="32" height="27" fill="none"/>
    </clipPath>
    <clipPath id="clip-path-2">
      <path id="Trazado_8" data-name="Trazado 8" d="M32.481,0H0V27.068H32.481Z" transform="translate(32.481 27.068) rotate(180)" fill="none"/>
    </clipPath>
  </defs>
  <g id="Botón_atrás" data-name="Botón atrás" clip-path="url(#clip-path)">
    <g id="Grupo_2" data-name="Grupo 2" transform="translate(32.481 27.068) rotate(180)">
      <path id="Trazado_6" data-name="Trazado 6" d="M32.481,0H0V27.068H32.481Z" transform="translate(32.481 27.068) rotate(180)" fill="none"/>
      <g id="Grupo_1" data-name="Grupo 1" clip-path="url(#clip-path-2)">
        <path id="Trazado_7" data-name="Trazado 7" d="M.2,13.03,12.378.209a.653.653,0,0,1,.957,0,.739.739,0,0,1,0,1.007L2.31,12.822H27.744a.713.713,0,0,1,0,1.425H2.31l11.025,11.6a.739.739,0,0,1,0,1.007.651.651,0,0,1-.957,0L.2,14.037a.716.716,0,0,1-.146-.232.747.747,0,0,1,0-.544A.7.7,0,0,1,.2,13.03Z" transform="translate(32.48 27.068) rotate(180)" fill="#333"/>
      </g>
    </g>
  </g>
</svg>
