<svg xmlns="http://www.w3.org/2000/svg" width="50" height="44.492" viewBox="0 0 50 44.492">
  <g id="Grupo_7943-2" data-name="Grupo 7943-2" transform="translate(-1121.917 -768.929)">
    <rect id="Rectángulo_6" data-name="Rectángulo 6" width="37.663" height="22.796" rx="5" transform="translate(1125.679 780.614)" fill="none" stroke="#595959" stroke-width="1"/>
    <g id="Grupo_6" data-name="Grupo 6" transform="translate(1129.357 786.561)">
      <circle id="Elipse_5" data-name="Elipse 5" cx="2.63" cy="2.63" r="2.63" transform="translate(1.867 0)" fill="none" stroke="#595959" stroke-miterlimit="10" stroke-width="1"/>
      <path id="Trazado_18" data-name="Trazado 18" d="M0,2.35S2.132,0,4.5,0,9.061,2.35,9.061,2.35A9.157,9.157,0,0,1,4.5,3.945,8.791,8.791,0,0,1,0,2.35Z" transform="translate(0 6.732)" fill="#d4f9f5" stroke="#595959" stroke-linecap="round" stroke-linejoin="round" stroke-miterlimit="10" stroke-width="1"/>
    </g>
    <line id="Línea_7" data-name="Línea 7" x2="8.514" transform="translate(1142.871 788.926)" fill="none" stroke="#595959" stroke-linecap="round" stroke-width="1"/>
    <line id="Línea_8" data-name="Línea 8" x2="16.057" transform="translate(1142.871 791.906)" fill="none" stroke="#595959" stroke-linecap="round" stroke-width="1"/>
    <line id="Línea_9" data-name="Línea 9" x2="14.354" transform="translate(1142.871 794.886)" fill="none" stroke="#595959" stroke-linecap="round" stroke-width="1"/>
    <g id="Grupo_15" data-name="Grupo 15" transform="translate(1122.417 769.429)">
      <g id="Grupo_14" data-name="Grupo 14">
        <g id="Grupo_9" data-name="Grupo 9" transform="translate(45.041 24.37)">
          <g id="Grupo_7" data-name="Grupo 7" transform="translate(1.979)">
            <path id="Trazado_19" data-name="Trazado 19" d="M.5.3V4.089" transform="translate(-0.5 -0.3)" fill="none" stroke="#00baa4" stroke-linecap="round" stroke-width="1"/>
          </g>
          <g id="Grupo_8" data-name="Grupo 8" transform="translate(0 1.848) rotate(-90)">
            <path id="Trazado_20" data-name="Trazado 20" d="M0,0V3.959" fill="none" stroke="#00baa4" stroke-linecap="round" stroke-width="1"/>
          </g>
        </g>
        <g id="Grupo_11" data-name="Grupo 11" transform="translate(0 2.365)">
          <path id="Trazado_21" data-name="Trazado 21" d="M.5.5V4.867" transform="translate(1.684 -0.5)" fill="none" stroke="#00baa4" stroke-linecap="round" stroke-width="1"/>
          <g id="Grupo_10" data-name="Grupo 10" transform="translate(0 2.184) rotate(-90)">
            <path id="Trazado_22" data-name="Trazado 22" d="M0,0V4.367" fill="none" stroke="#00baa4" stroke-linecap="round" stroke-width="1"/>
          </g>
        </g>
        <g id="Grupo_13" data-name="Grupo 13" transform="translate(10.643)">
          <path id="Trazado_23" data-name="Trazado 23" d="M.5.5V2.975" transform="translate(0.738 -0.5)" fill="none" stroke="#00baa4" stroke-linecap="round" stroke-width="1"/>
          <g id="Grupo_12" data-name="Grupo 12" transform="translate(0 1.238) rotate(-90)">
            <path id="Trazado_24" data-name="Trazado 24" d="M0,0V2.475" fill="none" stroke="#00baa4" stroke-linecap="round" stroke-width="1"/>
          </g>
        </g>
      </g>
      <ellipse id="Elipse_6" data-name="Elipse 6" cx="16.601" cy="1.982" rx="16.601" ry="1.982" transform="translate(6.731 40.028)" fill="#e0e0e0"/>
    </g>
  </g>
</svg>
