<svg xmlns="http://www.w3.org/2000/svg" width="93.334" height="83.397" viewBox="0 0 93.334 83.397">
  <g id="Grupo_7943" data-name="Grupo 7943" transform="translate(-1121.917 -768.929)">
    <rect id="Rectángulo_7" data-name="Rectángulo 7" width="70.97" height="42.956" rx="5" transform="translate(1128.564 790.506)" fill="none" stroke="#595959" stroke-width="1"/>
    <g id="Grupo_16" data-name="Grupo 16" transform="translate(1135.495 801.712)">
      <circle id="Elipse_7" data-name="Elipse 7" cx="4.956" cy="4.956" r="4.956" transform="translate(3.519 0)" fill="none" stroke="#595959" stroke-miterlimit="10" stroke-width="1"/>
      <path id="Trazado_25" data-name="Trazado 25" d="M0,4.428S4.018,0,8.475,0s8.6,4.428,8.6,4.428-4.218,3.006-8.6,3.006S0,4.428,0,4.428Z" transform="translate(0 12.686)" fill="#d4f9f5" stroke="#595959" stroke-linecap="round" stroke-linejoin="round" stroke-miterlimit="10" stroke-width="1"/>
    </g>
    <line id="Línea_10" data-name="Línea 10" x2="16.044" transform="translate(1160.96 806.169)" fill="none" stroke="#595959" stroke-linecap="round" stroke-width="1"/>
    <line id="Línea_11" data-name="Línea 11" x2="30.257" transform="translate(1160.96 811.784)" fill="none" stroke="#595959" stroke-linecap="round" stroke-width="1"/>
    <line id="Línea_12" data-name="Línea 12" x2="27.048" transform="translate(1160.96 817.399)" fill="none" stroke="#595959" stroke-linecap="round" stroke-width="1"/>
    <g id="Grupo_26" data-name="Grupo 26" transform="translate(1122.417 769.429)">
      <g id="Grupo_24" data-name="Grupo 24">
        <g id="Grupo_19" data-name="Grupo 19" transform="translate(84.873 45.922)">
          <g id="Grupo_17" data-name="Grupo 17" transform="translate(3.73)">
            <path id="Trazado_26" data-name="Trazado 26" d="M.5.3V7.439" transform="translate(-0.5 -0.3)" fill="none" stroke="#00baa4" stroke-linecap="round" stroke-width="1"/>
          </g>
          <g id="Grupo_18" data-name="Grupo 18" transform="translate(0 3.482) rotate(-90)">
            <path id="Trazado_27" data-name="Trazado 27" d="M0,0V7.461" fill="none" stroke="#00baa4" stroke-linecap="round" stroke-width="1"/>
          </g>
        </g>
        <g id="Grupo_21" data-name="Grupo 21" transform="translate(0 4.456)">
          <path id="Trazado_28" data-name="Trazado 28" d="M.5.5V8.729" transform="translate(3.615 -0.5)" fill="none" stroke="#00baa4" stroke-linecap="round" stroke-width="1"/>
          <g id="Grupo_20" data-name="Grupo 20" transform="translate(0 4.115) rotate(-90)">
            <path id="Trazado_29" data-name="Trazado 29" d="M0,0V8.229" fill="none" stroke="#00baa4" stroke-linecap="round" stroke-width="1"/>
          </g>
        </g>
        <g id="Grupo_23" data-name="Grupo 23" transform="translate(20.055)">
          <path id="Trazado_30" data-name="Trazado 30" d="M.5.5V5.163" transform="translate(1.832 -0.5)" fill="none" stroke="#00baa4" stroke-linecap="round" stroke-width="1"/>
          <g id="Grupo_22" data-name="Grupo 22" transform="translate(0 2.332) rotate(-90)">
            <path id="Trazado_31" data-name="Trazado 31" d="M0,0V4.663" fill="none" stroke="#00baa4" stroke-linecap="round" stroke-width="1"/>
          </g>
        </g>
      </g>
      <ellipse id="Elipse_8" data-name="Elipse 8" cx="31.283" cy="3.735" rx="31.283" ry="3.735" transform="translate(12.684 75.427)" fill="#e0e0e0"/>
      <g id="Grupo_25" data-name="Grupo 25" transform="translate(86.872 32.325) rotate(89.026)">
        <path id="Trazado_32" data-name="Trazado 32" d="M14.546,29.092A14.546,14.546,0,1,0,0,14.546,14.546,14.546,0,0,0,14.546,29.092Z" transform="translate(0 10.983)" fill="#d4f9f5" stroke="#595959" stroke-linecap="round" stroke-linejoin="round" stroke-width="1"/>
        <g id="Rectángulo_8" data-name="Rectángulo 8" transform="matrix(0.695, 0.719, -0.719, 0.695, 36.89, 0)" fill="#f7f7f7" stroke="#595959" stroke-linecap="round" stroke-linejoin="round" stroke-miterlimit="10" stroke-width="1">
          <rect width="6.215" height="16.573" rx="1.5" stroke="none"/>
          <rect x="0.5" y="0.5" width="5.215" height="15.573" rx="1" fill="none"/>
        </g>
        <path id="Trazado_33" data-name="Trazado 33" d="M0,1.807,1.713,0" transform="translate(25.89 13.665)" fill="none" stroke="#595959" stroke-linecap="round" stroke-miterlimit="10" stroke-width="1"/>
      </g>
    </g>
    <line id="Línea_13" data-name="Línea 13" x2="3.652" transform="translate(1173.352 807.158)" fill="none" stroke="#595959" stroke-linecap="round" stroke-width="1"/>
    <line id="Línea_14" data-name="Línea 14" x2="20.832" transform="translate(1170.385 812.773)" fill="none" stroke="#595959" stroke-linecap="round" stroke-width="1"/>
    <line id="Línea_15" data-name="Línea 15" x2="17.623" y2="0.002" transform="translate(1170.385 818.386)" fill="none" stroke="#595959" stroke-linecap="round" stroke-width="1"/>
  </g>
</svg>
