<svg id="simbolo" xmlns="http://www.w3.org/2000/svg" width="32.058" height="32.058" viewBox="0 0 32.058 32.058">
  <path id="Trazado_45" data-name="Trazado 45" d="M7.514,109.969a8.463,8.463,0,0,1,1.2-4.35v-5.4h-5.4a16.037,16.037,0,0,0,0,19.508h5.4v-5.4A8.463,8.463,0,0,1,7.514,109.969Z" transform="translate(0 -93.94)" fill="#fbbd00"/>
  <path id="Trazado_46" data-name="Trazado 46" d="M199.757,374.153,196,377.91l3.757,3.757a15.908,15.908,0,0,0,9.754-3.307v-5.4h-5.4A8.514,8.514,0,0,1,199.757,374.153Z" transform="translate(-183.728 -349.609)" fill="#0f9d58"/>
  <path id="Trazado_47" data-name="Trazado 47" d="M58.227,325.477l-5.4,5.4a16.285,16.285,0,0,0,1.387,1.58,15.924,15.924,0,0,0,11.334,4.695v-7.514A8.519,8.519,0,0,1,58.227,325.477Z" transform="translate(-49.516 -305.098)" fill="#31aa52"/>
  <path id="Trazado_48" data-name="Trazado 48" d="M272.029,201a16.169,16.169,0,0,0-.262-2.9l-.141-.77H256v7.514h7.6a8.477,8.477,0,0,1-3.249,3.484l5.4,5.4a16.287,16.287,0,0,0,1.58-1.387A15.924,15.924,0,0,0,272.029,201Z" transform="translate(-239.971 -184.969)" fill="#3c79e6"/>
  <path id="Trazado_49" data-name="Trazado 49" d="M205.778,10.008l.664.664,5.313-5.313-.664-.664A15.924,15.924,0,0,0,199.757,0L196,3.757l3.757,3.757A8.46,8.46,0,0,1,205.778,10.008Z" transform="translate(-183.728 0)" fill="#cf2d48"/>
  <path id="Trazado_50" data-name="Trazado 50" d="M65.544,7.514V0A15.924,15.924,0,0,0,54.209,4.695a16.27,16.27,0,0,0-1.387,1.58l5.4,5.4a8.519,8.519,0,0,1,7.318-4.165Z" transform="translate(-49.515 0)" fill="#eb4132"/>
</svg>
